<?xml version="1.0" encoding="UTF-8" standalone="no"?>
<svg
   width="4614"
   height="4614"
   viewBox="0 0 4614 4614"
   fill="none"
   version="1.1"
   id="svg15"
   xmlns:xlink="http://www.w3.org/1999/xlink"
   xmlns="http://www.w3.org/2000/svg"
   xmlns:svg="http://www.w3.org/2000/svg">
  <path
     d="M 2306.9988,0.585938 4304.4888,1153.84 v 2306.5 L 2306.9988,4613.59 309.51123,3460.34 v -2306.5 z"
     fill="#ffffff"
     id="path1" />
  <g
     filter="url(#filter0_d_24_107)"
     id="g2"
     transform="translate(309.50006)">
    <path
       d="M 1997.5,232.586 3794.07,1269.84 v 2074.5 L 1997.5,4381.59 200.93,3344.34 v -2074.5 z"
       fill="url(#paint0_linear_24_107)"
       id="path2"
       style="fill:url(#paint0_linear_24_107)" />
  </g>
  <g
     style="mix-blend-mode:screen"
     filter="url(#filter1_d_24_107)"
     id="g3"
     transform="translate(309.50006)">
    <path
       d="M 1997.5,232.586 3794.07,1269.84 v 2074.5 L 1997.5,4381.59 200.93,3344.34 v -2074.5 z"
       fill="url(#pattern0)"
       shape-rendering="crispEdges"
       id="path3" />
  </g>
  <g
     filter="url(#filter2_f_24_107)"
     id="g4"
     transform="translate(336.61005)">
    <path
       d="m 1563.95,1072.45 c 0,17.06 -2.93,32.75 -8.79,47.07 -5.86,14.32 -14,26.69 -24.42,37.11 -10.41,10.42 -22.78,18.55 -37.11,24.41 -14.19,5.73 -29.68,8.6 -46.48,8.6 h -68.75 c -16.8,0 -32.36,-2.87 -46.68,-8.6 -14.32,-5.86 -26.69,-13.99 -37.11,-24.41 -10.42,-10.42 -18.62,-22.79 -24.61,-37.11 -5.86,-14.32 -8.79,-30.01 -8.79,-47.07 v -53.52 c 0,-16.92 2.93,-32.548 8.79,-46.871 5.99,-14.454 14.19,-26.823 24.61,-37.11 10.42,-10.416 22.79,-18.554 37.11,-24.414 14.32,-5.859 29.88,-8.789 46.68,-8.789 h 68.75 c 16.8,0 32.29,2.93 46.48,8.789 14.33,5.86 26.7,13.998 37.11,24.414 10.42,10.287 18.56,22.656 24.42,37.11 5.86,14.323 8.79,29.951 8.79,46.871 z m -50.78,-53.52 c 0,-10.02 -1.63,-19.072 -4.89,-27.145 -3.12,-8.203 -7.61,-15.169 -13.47,-20.898 -5.73,-5.86 -12.7,-10.352 -20.9,-13.477 -8.07,-3.255 -16.99,-4.883 -26.76,-4.883 h -68.75 c -9.9,0 -18.94,1.628 -27.15,4.883 -8.07,3.125 -15.04,7.617 -20.9,13.477 -5.86,5.729 -10.41,12.695 -13.67,20.898 -3.12,8.073 -4.69,17.125 -4.69,27.145 v 53.52 c 0,10.03 1.57,19.14 4.69,27.34 3.26,8.08 7.81,15.04 13.67,20.9 5.86,5.73 12.83,10.22 20.9,13.48 8.21,3.12 17.25,4.69 27.15,4.69 h 68.36 c 9.9,0 18.88,-1.57 26.95,-4.69 8.21,-3.26 15.24,-7.75 21.1,-13.48 5.86,-5.86 10.35,-12.82 13.47,-20.9 3.26,-8.2 4.89,-17.31 4.89,-27.34 z m 380.86,-19.137 c 0,11.587 -1.44,21.937 -4.3,31.057 -2.87,9.11 -6.77,17.19 -11.72,24.22 -4.82,6.9 -10.42,12.82 -16.8,17.77 -6.38,4.95 -13.08,9.05 -20.11,12.3 -6.91,3.13 -13.94,5.41 -21.1,6.84 -7.03,1.43 -13.67,2.15 -19.92,2.15 l 106.05,91.6 h -78.51 l -105.86,-91.6 h -36.52 v -50.78 h 114.84 c 6.38,-0.52 12.17,-1.83 17.38,-3.91 5.34,-2.21 9.9,-5.14 13.67,-8.79 3.91,-3.64 6.91,-8.01 8.99,-13.08 2.08,-5.21 3.12,-11.14 3.12,-17.777 v -32.031 c 0,-2.865 -0.39,-5.013 -1.17,-6.446 -0.65,-1.562 -1.56,-2.669 -2.73,-3.32 -1.04,-0.781 -2.22,-1.237 -3.52,-1.367 -1.17,-0.13 -2.28,-0.195 -3.32,-0.195 h -167.58 v 229.296 h -50.78 V 931.238 c 0,-3.515 0.65,-6.836 1.96,-9.961 1.3,-3.125 3.06,-5.859 5.27,-8.203 2.34,-2.344 5.08,-4.166 8.2,-5.469 3.13,-1.302 6.51,-1.953 10.16,-1.953 h 192.77 c 11.33,0 20.9,2.084 28.71,6.25 7.82,4.037 14.13,9.18 18.95,15.43 4.95,6.12 8.46,12.76 10.55,19.922 2.21,7.161 3.32,13.867 3.32,20.117 z m 102.14,185.937 h -50.78 V 905.652 h 50.78 z m 353.32,-113.28 c 0,17.06 -2.93,32.75 -8.78,47.07 -5.86,14.32 -14,26.69 -24.42,37.11 -10.42,10.42 -22.79,18.55 -37.11,24.41 -14.19,5.73 -29.69,8.6 -46.48,8.6 h -68.75 c -16.8,0 -32.36,-2.87 -46.68,-8.6 -14.33,-5.86 -26.7,-13.99 -37.11,-24.41 -10.42,-10.42 -18.62,-22.79 -24.61,-37.11 -5.86,-14.32 -8.79,-30.01 -8.79,-47.07 v -53.52 c 0,-16.92 2.93,-32.548 8.79,-46.871 5.99,-14.454 14.19,-26.823 24.61,-37.11 10.41,-10.416 22.78,-18.554 37.11,-24.414 14.32,-5.859 29.88,-8.789 46.68,-8.789 h 68.75 c 16.79,0 32.29,2.93 46.48,8.789 14.32,5.86 26.69,13.998 37.11,24.414 10.42,10.287 18.56,22.656 24.42,37.11 5.85,14.323 8.78,29.951 8.78,46.871 z m -50.78,-53.52 c 0,-10.02 -1.62,-19.072 -4.88,-27.145 -3.12,-8.203 -7.62,-15.169 -13.48,-20.898 -5.73,-5.86 -12.69,-10.352 -20.89,-13.477 -8.08,-3.255 -17,-4.883 -26.76,-4.883 h -68.75 c -9.9,0 -18.95,1.628 -27.15,4.883 -8.07,3.125 -15.04,7.617 -20.9,13.477 -5.86,5.729 -10.42,12.695 -13.67,20.898 -3.13,8.073 -4.69,17.125 -4.69,27.145 v 53.52 c 0,10.03 1.56,19.14 4.69,27.34 3.25,8.08 7.81,15.04 13.67,20.9 5.86,5.73 12.83,10.22 20.9,13.48 8.2,3.12 17.25,4.69 27.15,4.69 h 68.36 c 9.89,0 18.88,-1.57 26.95,-4.69 8.2,-3.26 15.23,-7.75 21.09,-13.48 5.86,-5.86 10.36,-12.82 13.48,-20.9 3.26,-8.2 4.88,-17.31 4.88,-27.34 z m 380.86,145.12 c 0,3.65 -0.71,7.03 -2.15,10.16 -1.3,3.12 -3.12,5.86 -5.46,8.2 -2.22,2.21 -4.89,3.97 -8.01,5.27 -3.13,1.31 -6.45,1.96 -9.96,1.96 -3.13,0 -6.32,-0.59 -9.57,-1.76 -3.13,-1.17 -5.93,-3.06 -8.4,-5.67 L 2450.47,988.465 v 197.265 h -50.78 V 927.332 c 0,-5.208 1.43,-9.896 4.3,-14.062 2.99,-4.297 6.77,-7.487 11.32,-9.571 4.82,-1.953 9.77,-2.409 14.85,-1.367 5.08,0.911 9.44,3.255 13.08,7.031 l 185.55,193.557 V 905.652 h 50.78 z"
       fill="#ffffff"
       id="path4" />
  </g>
  <g
     filter="url(#filter3_d_24_107)"
     id="g5"
     transform="translate(336.61005)">
    <path
       d="m 1563.95,1072.45 c 0,17.06 -2.93,32.75 -8.79,47.07 -5.86,14.32 -14,26.69 -24.42,37.11 -10.41,10.42 -22.78,18.55 -37.11,24.41 -14.19,5.73 -29.68,8.6 -46.48,8.6 h -68.75 c -16.8,0 -32.36,-2.87 -46.68,-8.6 -14.32,-5.86 -26.69,-13.99 -37.11,-24.41 -10.42,-10.42 -18.62,-22.79 -24.61,-37.11 -5.86,-14.32 -8.79,-30.01 -8.79,-47.07 v -53.52 c 0,-16.92 2.93,-32.548 8.79,-46.871 5.99,-14.454 14.19,-26.823 24.61,-37.11 10.42,-10.416 22.79,-18.554 37.11,-24.414 14.32,-5.859 29.88,-8.789 46.68,-8.789 h 68.75 c 16.8,0 32.29,2.93 46.48,8.789 14.33,5.86 26.7,13.998 37.11,24.414 10.42,10.287 18.56,22.656 24.42,37.11 5.86,14.323 8.79,29.951 8.79,46.871 z m -50.78,-53.52 c 0,-10.02 -1.63,-19.072 -4.89,-27.145 -3.12,-8.203 -7.61,-15.169 -13.47,-20.898 -5.73,-5.86 -12.7,-10.352 -20.9,-13.477 -8.07,-3.255 -16.99,-4.883 -26.76,-4.883 h -68.75 c -9.9,0 -18.94,1.628 -27.15,4.883 -8.07,3.125 -15.04,7.617 -20.9,13.477 -5.86,5.729 -10.41,12.695 -13.67,20.898 -3.12,8.073 -4.69,17.125 -4.69,27.145 v 53.52 c 0,10.03 1.57,19.14 4.69,27.34 3.26,8.08 7.81,15.04 13.67,20.9 5.86,5.73 12.83,10.22 20.9,13.48 8.21,3.12 17.25,4.69 27.15,4.69 h 68.36 c 9.9,0 18.88,-1.57 26.95,-4.69 8.21,-3.26 15.24,-7.75 21.1,-13.48 5.86,-5.86 10.35,-12.82 13.47,-20.9 3.26,-8.2 4.89,-17.31 4.89,-27.34 z m 380.86,-19.137 c 0,11.587 -1.44,21.937 -4.3,31.057 -2.87,9.11 -6.77,17.19 -11.72,24.22 -4.82,6.9 -10.42,12.82 -16.8,17.77 -6.38,4.95 -13.08,9.05 -20.11,12.3 -6.91,3.13 -13.94,5.41 -21.1,6.84 -7.03,1.43 -13.67,2.15 -19.92,2.15 l 106.05,91.6 h -78.51 l -105.86,-91.6 h -36.52 v -50.78 h 114.84 c 6.38,-0.52 12.17,-1.83 17.38,-3.91 5.34,-2.21 9.9,-5.14 13.67,-8.79 3.91,-3.64 6.91,-8.01 8.99,-13.08 2.08,-5.21 3.12,-11.14 3.12,-17.777 v -32.031 c 0,-2.865 -0.39,-5.013 -1.17,-6.446 -0.65,-1.562 -1.56,-2.669 -2.73,-3.32 -1.04,-0.781 -2.22,-1.237 -3.52,-1.367 -1.17,-0.13 -2.28,-0.195 -3.32,-0.195 h -167.58 v 229.296 h -50.78 V 931.238 c 0,-3.515 0.65,-6.836 1.96,-9.961 1.3,-3.125 3.06,-5.859 5.27,-8.203 2.34,-2.344 5.08,-4.166 8.2,-5.469 3.13,-1.302 6.51,-1.953 10.16,-1.953 h 192.77 c 11.33,0 20.9,2.084 28.71,6.25 7.82,4.037 14.13,9.18 18.95,15.43 4.95,6.12 8.46,12.76 10.55,19.922 2.21,7.161 3.32,13.867 3.32,20.117 z m 102.14,185.937 h -50.78 V 905.652 h 50.78 z m 353.32,-113.28 c 0,17.06 -2.93,32.75 -8.78,47.07 -5.86,14.32 -14,26.69 -24.42,37.11 -10.42,10.42 -22.79,18.55 -37.11,24.41 -14.19,5.73 -29.69,8.6 -46.48,8.6 h -68.75 c -16.8,0 -32.36,-2.87 -46.68,-8.6 -14.33,-5.86 -26.7,-13.99 -37.11,-24.41 -10.42,-10.42 -18.62,-22.79 -24.61,-37.11 -5.86,-14.32 -8.79,-30.01 -8.79,-47.07 v -53.52 c 0,-16.92 2.93,-32.548 8.79,-46.871 5.99,-14.454 14.19,-26.823 24.61,-37.11 10.41,-10.416 22.78,-18.554 37.11,-24.414 14.32,-5.859 29.88,-8.789 46.68,-8.789 h 68.75 c 16.79,0 32.29,2.93 46.48,8.789 14.32,5.86 26.69,13.998 37.11,24.414 10.42,10.287 18.56,22.656 24.42,37.11 5.85,14.323 8.78,29.951 8.78,46.871 z m -50.78,-53.52 c 0,-10.02 -1.62,-19.072 -4.88,-27.145 -3.12,-8.203 -7.62,-15.169 -13.48,-20.898 -5.73,-5.86 -12.69,-10.352 -20.89,-13.477 -8.08,-3.255 -17,-4.883 -26.76,-4.883 h -68.75 c -9.9,0 -18.95,1.628 -27.15,4.883 -8.07,3.125 -15.04,7.617 -20.9,13.477 -5.86,5.729 -10.42,12.695 -13.67,20.898 -3.13,8.073 -4.69,17.125 -4.69,27.145 v 53.52 c 0,10.03 1.56,19.14 4.69,27.34 3.25,8.08 7.81,15.04 13.67,20.9 5.86,5.73 12.83,10.22 20.9,13.48 8.2,3.12 17.25,4.69 27.15,4.69 h 68.36 c 9.89,0 18.88,-1.57 26.95,-4.69 8.2,-3.26 15.23,-7.75 21.09,-13.48 5.86,-5.86 10.36,-12.82 13.48,-20.9 3.26,-8.2 4.88,-17.31 4.88,-27.34 z m 380.86,145.12 c 0,3.65 -0.71,7.03 -2.15,10.16 -1.3,3.12 -3.12,5.86 -5.46,8.2 -2.22,2.21 -4.89,3.97 -8.01,5.27 -3.13,1.31 -6.45,1.96 -9.96,1.96 -3.13,0 -6.32,-0.59 -9.57,-1.76 -3.13,-1.17 -5.93,-3.06 -8.4,-5.67 L 2450.47,988.465 v 197.265 h -50.78 V 927.332 c 0,-5.208 1.43,-9.896 4.3,-14.062 2.99,-4.297 6.77,-7.487 11.32,-9.571 4.82,-1.953 9.77,-2.409 14.85,-1.367 5.08,0.911 9.44,3.255 13.08,7.031 l 185.55,193.557 V 905.652 h 50.78 z"
       fill="#ffffff"
       id="path5" />
  </g>
  <use
     filter="url(#filter4_f_24_107)"
     href="#constellation"
     xlink:href="#constellation"
     id="use5"
     transform="translate(153.70496)" />
  <use
     href="#constellation"
     xlink:href="#constellation"
     id="use6"
     transform="translate(165.25)" />
  <defs
     id="defs15">
    <filter
       id="filter0_d_24_107"
       x="196.92999"
       y="232.586"
       width="3601.1399"
       height="4157"
       filterUnits="userSpaceOnUse"
       color-interpolation-filters="sRGB">
      <feFlood
         flood-opacity="0"
         result="BackgroundImageFix"
         id="feFlood6" />
      <feColorMatrix
         in="SourceAlpha"
         type="matrix"
         values="0 0 0 0 0 0 0 0 0 0 0 0 0 0 0 0 0 0 127 0"
         result="hardAlpha"
         id="feColorMatrix6" />
      <feOffset
         dy="4"
         id="feOffset6" />
      <feGaussianBlur
         stdDeviation="2"
         id="feGaussianBlur6" />
      <feComposite
         in2="hardAlpha"
         operator="out"
         id="feComposite6" />
      <feColorMatrix
         type="matrix"
         values="0 0 0 0 0 0 0 0 0 0 0 0 0 0 0 0 0 0 0.25 0"
         id="feColorMatrix7" />
      <feBlend
         mode="normal"
         in2="BackgroundImageFix"
         result="effect1_dropShadow_24_107"
         id="feBlend7" />
      <feBlend
         mode="normal"
         in="SourceGraphic"
         in2="effect1_dropShadow_24_107"
         result="shape"
         id="feBlend8" />
    </filter>
    <filter
       id="filter1_d_24_107"
       x="196.92999"
       y="232.586"
       width="3601.1399"
       height="4157"
       filterUnits="userSpaceOnUse"
       color-interpolation-filters="sRGB">
      <feFlood
         flood-opacity="0"
         result="BackgroundImageFix"
         id="feFlood8" />
      <feColorMatrix
         in="SourceAlpha"
         type="matrix"
         values="0 0 0 0 0 0 0 0 0 0 0 0 0 0 0 0 0 0 127 0"
         result="hardAlpha"
         id="feColorMatrix8" />
      <feOffset
         dy="4"
         id="feOffset8" />
      <feGaussianBlur
         stdDeviation="2"
         id="feGaussianBlur8" />
      <feComposite
         in2="hardAlpha"
         operator="out"
         id="feComposite8" />
      <feColorMatrix
         type="matrix"
         values="0 0 0 0 0 0 0 0 0 0 0 0 0 0 0 0 0 0 0.25 0"
         id="feColorMatrix9" />
      <feBlend
         mode="normal"
         in2="BackgroundImageFix"
         result="effect1_dropShadow_24_107"
         id="feBlend9" />
      <feBlend
         mode="normal"
         in="SourceGraphic"
         in2="effect1_dropShadow_24_107"
         result="shape"
         id="feBlend10" />
    </filter>
    <pattern
       id="pattern0"
       patternContentUnits="objectBoundingBox"
       width="1"
       height="1">
      <use
         xlink:href="#image0_24_107"
         transform="translate(0 -0.334259) scale(0.000925926)"
         id="use10" />
    </pattern>
    <filter
       id="filter2_f_24_107"
       x="1181.21"
       y="820.77002"
       width="1578.36"
       height="448.867"
       filterUnits="userSpaceOnUse"
       color-interpolation-filters="sRGB">
      <feFlood
         flood-opacity="0"
         result="BackgroundImageFix"
         id="feFlood10" />
      <feBlend
         mode="normal"
         in="SourceGraphic"
         in2="BackgroundImageFix"
         result="shape"
         id="feBlend11" />
      <feGaussianBlur
         stdDeviation="40"
         result="effect1_foregroundBlur_24_107"
         id="feGaussianBlur11" />
    </filter>
    <filter
       id="filter3_d_24_107"
       x="1257.21"
       y="900.77002"
       width="1426.36"
       height="312.867"
       filterUnits="userSpaceOnUse"
       color-interpolation-filters="sRGB">
      <feFlood
         flood-opacity="0"
         result="BackgroundImageFix"
         id="feFlood11" />
      <feColorMatrix
         in="SourceAlpha"
         type="matrix"
         values="0 0 0 0 0 0 0 0 0 0 0 0 0 0 0 0 0 0 127 0"
         result="hardAlpha"
         id="feColorMatrix11" />
      <feOffset
         dy="20"
         id="feOffset11" />
      <feGaussianBlur
         stdDeviation="2"
         id="feGaussianBlur12" />
      <feComposite
         in2="hardAlpha"
         operator="out"
         id="feComposite12" />
      <feColorMatrix
         type="matrix"
         values="0 0 0 0 0 0 0 0 0 0 0 0 0 0 0 0 0 0 0.25 0"
         id="feColorMatrix12" />
      <feBlend
         mode="normal"
         in2="BackgroundImageFix"
         result="effect1_dropShadow_24_107"
         id="feBlend12" />
      <feBlend
         mode="normal"
         in="SourceGraphic"
         in2="effect1_dropShadow_24_107"
         result="shape"
         id="feBlend13" />
    </filter>
    <filter
       id="filter4_f_24_107"
       x="1099.89"
       y="1305.47"
       width="2106.8101"
       height="2532.8899"
       filterUnits="userSpaceOnUse"
       color-interpolation-filters="sRGB">
      <feFlood
         flood-opacity="0"
         result="BackgroundImageFix"
         id="feFlood13" />
      <feBlend
         mode="normal"
         in="SourceGraphic"
         in2="BackgroundImageFix"
         result="shape"
         id="feBlend14" />
      <feGaussianBlur
         stdDeviation="40"
         result="effect1_foregroundBlur_24_107"
         id="feGaussianBlur14" />
    </filter>
    <linearGradient
       id="paint0_linear_24_107"
       x1="1997.5"
       y1="232.586"
       x2="1997.5"
       y2="4381.5898"
       gradientUnits="userSpaceOnUse">
      <stop
         stop-color="#2E2B5F"
         id="stop14" />
      <stop
         offset="1"
         stop-color="#DC331B"
         id="stop15" />
    </linearGradient>
    <image
       id="image0_24_107"
       width="1080"
       height="1802"
       href="../stars-overlay.jpg"
       xlink:href="../stars-overlay.jpg" />
    <image
       id="constellation"
       preserveAspectRatio="none"
       width="1946.3"
       height="2371.8"
       x="1168.6"
       y="1390.3"
       href="constellation.svg"
       xlink:href="./constellation.svg" />
  </defs>
</svg>
