<?xml version="1.0" encoding="UTF-8" standalone="no"?>
<svg
   width="4613"
   height="4613"
   viewBox="0 0 4613 4613"
   fill="none"
   version="1.1"
   id="svg15"
   xmlns:xlink="http://www.w3.org/1999/xlink"
   xmlns="http://www.w3.org/2000/svg"
   xmlns:svg="http://www.w3.org/2000/svg">
  <path
     d="m 2306.4988,0 1997.49,1153.25 v 2306.5 L 2306.4988,4613 309.01125,3459.75 v -2306.5 z"
     fill="#ffffff"
     id="path1" />
  <g
     filter="url(#filter0_d_24_96)"
     id="g2"
     transform="translate(290.00006)">
    <path
       d="m 2016.5,232 1796.57,1037.25 v 2074.5 L 2016.5,4381 219.93,3343.75 v -2074.5 z"
       fill="url(#paint0_linear_24_96)"
       id="path2"
       style="fill:url(#paint0_linear_24_96)" />
  </g>
  <g
     style="mix-blend-mode:screen"
     filter="url(#filter1_d_24_96)"
     id="g3"
     transform="translate(290.00006)">
    <path
       d="m 2016.5,232 1796.57,1037.25 v 2074.5 L 2016.5,4381 219.93,3343.75 v -2074.5 z"
       fill="url(#pattern0)"
       shape-rendering="crispEdges"
       id="path3" />
  </g>
  <g
     filter="url(#filter2_f_24_96)"
     id="g4"
     transform="translate(325.67493)">
    <path
       d="m 1646.16,1297.21 h -231.64 c -3.65,0 -7.03,-0.65 -10.16,-1.95 -3.12,-1.3 -5.86,-3.06 -8.2,-5.28 -2.21,-2.34 -3.97,-5.07 -5.27,-8.2 -1.31,-3.12 -1.96,-6.51 -1.96,-10.16 v -254.49 h 50.78 v 229.3 h 206.45 z m 275.2,-186.33 c 0,11.59 -1.5,21.94 -4.5,31.06 -2.86,9.11 -6.7,17.18 -11.52,24.22 -4.82,6.9 -10.48,12.82 -16.99,17.77 -6.38,4.95 -13.02,9.05 -19.92,12.3 -6.91,3.13 -13.94,5.41 -21.1,6.84 -7.03,1.43 -13.67,2.15 -19.92,2.15 h -20.51 v 91.99 h -51.17 v -91.99 h -20.31 c -6.25,0 -12.96,-0.72 -20.12,-2.15 -7.03,-1.43 -14.06,-3.71 -21.09,-6.84 -6.9,-3.25 -13.54,-7.35 -19.92,-12.3 -6.39,-4.95 -12.05,-10.87 -17,-17.77 -4.81,-7.04 -8.72,-15.11 -11.72,-24.22 -2.86,-9.25 -4.29,-19.6 -4.29,-31.06 v -93.75 h 50.78 v 93.75 c 0,6.64 1.04,12.63 3.12,17.97 2.09,5.21 5.02,9.7 8.79,13.48 3.78,3.77 8.34,6.7 13.67,8.79 5.47,1.95 11.53,2.93 18.17,2.93 h 91.6 c 4.82,-0.78 9.77,-1.76 14.84,-2.93 5.08,-1.3 9.7,-3.45 13.87,-6.45 4.17,-2.99 7.62,-7.16 10.35,-12.5 2.74,-5.34 4.1,-12.43 4.1,-21.29 v -93.75 h 50.79 z m 325.58,0.39 c 0,11.59 -1.43,21.94 -4.3,31.06 -2.86,9.11 -6.77,17.19 -11.71,24.22 -4.82,6.9 -10.42,12.82 -16.8,17.77 -6.38,4.95 -13.09,9.05 -20.12,12.3 -6.9,3.13 -13.93,5.41 -21.09,6.84 -7.03,1.43 -13.67,2.15 -19.92,2.15 l 106.05,91.6 h -78.51 l -105.86,-91.6 h -36.53 v -50.78 H 2153 c 6.38,-0.52 12.17,-1.82 17.38,-3.91 5.34,-2.21 9.89,-5.14 13.67,-8.79 3.91,-3.64 6.9,-8.01 8.99,-13.08 2.08,-5.21 3.12,-11.14 3.12,-17.78 v -32.03 c 0,-2.86 -0.39,-5.01 -1.17,-6.44 -0.65,-1.57 -1.56,-2.67 -2.74,-3.32 -1.04,-0.78 -2.21,-1.24 -3.51,-1.37 -1.17,-0.13 -2.28,-0.2 -3.32,-0.2 h -167.58 v 229.3 h -50.78 v -254.49 c 0,-3.52 0.65,-6.84 1.95,-9.96 1.3,-3.13 3.06,-5.86 5.28,-8.21 2.34,-2.34 5.07,-4.16 8.2,-5.46 3.12,-1.31 6.51,-1.96 10.15,-1.96 h 192.78 c 11.33,0 20.9,2.09 28.71,6.25 7.81,4.04 14.13,9.18 18.94,15.43 4.95,6.12 8.47,12.76 10.55,19.92 2.21,7.17 3.32,13.87 3.32,20.12 z m 325.78,185.94 h -50.78 v -68.75 h -178.51 v 68.75 h -50.79 v -140.04 c 0,-20.44 3.52,-39.26 10.55,-56.44 7.03,-17.19 16.8,-31.97 29.3,-44.34 12.5,-12.37 27.28,-22 44.33,-28.91 17.06,-6.9 35.68,-10.35 55.86,-10.35 h 114.46 c 3.51,0 6.83,0.65 9.96,1.96 3.12,1.3 5.86,3.12 8.2,5.46 2.34,2.35 4.17,5.08 5.47,8.21 1.3,3.12 1.95,6.44 1.95,9.96 z m -229.29,-119.53 h 178.51 v -109.77 h -89.26 c -1.56,0 -4.88,0.26 -9.96,0.79 -4.95,0.39 -10.74,1.49 -17.38,3.32 -6.51,1.82 -13.41,4.62 -20.7,8.39 -7.29,3.78 -14,8.99 -20.12,15.63 -6.12,6.64 -11.2,14.97 -15.23,25 -3.91,9.89 -5.86,21.94 -5.86,36.13 z"
       fill="#ffffff"
       id="path4" />
  </g>
  <g
     filter="url(#filter3_d_24_96)"
     id="g5"
     transform="translate(325.67493)">
    <path
       d="m 1646.16,1297.21 h -231.64 c -3.65,0 -7.03,-0.65 -10.16,-1.95 -3.12,-1.3 -5.86,-3.06 -8.2,-5.28 -2.21,-2.34 -3.97,-5.07 -5.27,-8.2 -1.31,-3.12 -1.96,-6.51 -1.96,-10.16 v -254.49 h 50.78 v 229.3 h 206.45 z m 275.2,-186.33 c 0,11.59 -1.5,21.94 -4.5,31.06 -2.86,9.11 -6.7,17.18 -11.52,24.22 -4.82,6.9 -10.48,12.82 -16.99,17.77 -6.38,4.95 -13.02,9.05 -19.92,12.3 -6.91,3.13 -13.94,5.41 -21.1,6.84 -7.03,1.43 -13.67,2.15 -19.92,2.15 h -20.51 v 91.99 h -51.17 v -91.99 h -20.31 c -6.25,0 -12.96,-0.72 -20.12,-2.15 -7.03,-1.43 -14.06,-3.71 -21.09,-6.84 -6.9,-3.25 -13.54,-7.35 -19.92,-12.3 -6.39,-4.95 -12.05,-10.87 -17,-17.77 -4.81,-7.04 -8.72,-15.11 -11.72,-24.22 -2.86,-9.25 -4.29,-19.6 -4.29,-31.06 v -93.75 h 50.78 v 93.75 c 0,6.64 1.04,12.63 3.12,17.97 2.09,5.21 5.02,9.7 8.79,13.48 3.78,3.77 8.34,6.7 13.67,8.79 5.47,1.95 11.53,2.93 18.17,2.93 h 91.6 c 4.82,-0.78 9.77,-1.76 14.84,-2.93 5.08,-1.3 9.7,-3.45 13.87,-6.45 4.17,-2.99 7.62,-7.16 10.35,-12.5 2.74,-5.34 4.1,-12.43 4.1,-21.29 v -93.75 h 50.79 z m 325.58,0.39 c 0,11.59 -1.43,21.94 -4.3,31.06 -2.86,9.11 -6.77,17.19 -11.71,24.22 -4.82,6.9 -10.42,12.82 -16.8,17.77 -6.38,4.95 -13.09,9.05 -20.12,12.3 -6.9,3.13 -13.93,5.41 -21.09,6.84 -7.03,1.43 -13.67,2.15 -19.92,2.15 l 106.05,91.6 h -78.51 l -105.86,-91.6 h -36.53 v -50.78 H 2153 c 6.38,-0.52 12.17,-1.82 17.38,-3.91 5.34,-2.21 9.89,-5.14 13.67,-8.79 3.91,-3.64 6.9,-8.01 8.99,-13.08 2.08,-5.21 3.12,-11.14 3.12,-17.78 v -32.03 c 0,-2.86 -0.39,-5.01 -1.17,-6.44 -0.65,-1.57 -1.56,-2.67 -2.74,-3.32 -1.04,-0.78 -2.21,-1.24 -3.51,-1.37 -1.17,-0.13 -2.28,-0.2 -3.32,-0.2 h -167.58 v 229.3 h -50.78 v -254.49 c 0,-3.52 0.65,-6.84 1.95,-9.96 1.3,-3.13 3.06,-5.86 5.28,-8.21 2.34,-2.34 5.07,-4.16 8.2,-5.46 3.12,-1.31 6.51,-1.96 10.15,-1.96 h 192.78 c 11.33,0 20.9,2.09 28.71,6.25 7.81,4.04 14.13,9.18 18.94,15.43 4.95,6.12 8.47,12.76 10.55,19.92 2.21,7.17 3.32,13.87 3.32,20.12 z m 325.78,185.94 h -50.78 v -68.75 h -178.51 v 68.75 h -50.79 v -140.04 c 0,-20.44 3.52,-39.26 10.55,-56.44 7.03,-17.19 16.8,-31.97 29.3,-44.34 12.5,-12.37 27.28,-22 44.33,-28.91 17.06,-6.9 35.68,-10.35 55.86,-10.35 h 114.46 c 3.51,0 6.83,0.65 9.96,1.96 3.12,1.3 5.86,3.12 8.2,5.46 2.34,2.35 4.17,5.08 5.47,8.21 1.3,3.12 1.95,6.44 1.95,9.96 z m -229.29,-119.53 h 178.51 v -109.77 h -89.26 c -1.56,0 -4.88,0.26 -9.96,0.79 -4.95,0.39 -10.74,1.49 -17.38,3.32 -6.51,1.82 -13.41,4.62 -20.7,8.39 -7.29,3.78 -14,8.99 -20.12,15.63 -6.12,6.64 -11.2,14.97 -15.23,25 -3.91,9.89 -5.86,21.94 -5.86,36.13 z"
       fill="#ffffff"
       id="path5" />
  </g>
  <use
     filter="url(#filter4_f_24_96)"
     href="#constellation1"
     xlink:href="#constellation1"
     id="use5"
     transform="translate(192.79504)" />
  <use
     href="#constellation1"
     xlink:href="#constellation1"
     id="use6"
     transform="translate(192.79004)" />
  <defs
     id="defs15">
    <filter
       id="filter0_d_24_96"
       x="215.92999"
       y="232"
       width="3601.1399"
       height="4157"
       filterUnits="userSpaceOnUse"
       color-interpolation-filters="sRGB">
      <feFlood
         flood-opacity="0"
         result="BackgroundImageFix"
         id="feFlood6" />
      <feColorMatrix
         in="SourceAlpha"
         type="matrix"
         values="0 0 0 0 0 0 0 0 0 0 0 0 0 0 0 0 0 0 127 0"
         result="hardAlpha"
         id="feColorMatrix6" />
      <feOffset
         dy="4"
         id="feOffset6" />
      <feGaussianBlur
         stdDeviation="2"
         id="feGaussianBlur6" />
      <feComposite
         in2="hardAlpha"
         operator="out"
         id="feComposite6" />
      <feColorMatrix
         type="matrix"
         values="0 0 0 0 0 0 0 0 0 0 0 0 0 0 0 0 0 0 0.25 0"
         id="feColorMatrix7" />
      <feBlend
         mode="normal"
         in2="BackgroundImageFix"
         result="effect1_dropShadow_24_96"
         id="feBlend7" />
      <feBlend
         mode="normal"
         in="SourceGraphic"
         in2="effect1_dropShadow_24_96"
         result="shape"
         id="feBlend8" />
    </filter>
    <filter
       id="filter1_d_24_96"
       x="215.92999"
       y="232"
       width="3601.1399"
       height="4157"
       filterUnits="userSpaceOnUse"
       color-interpolation-filters="sRGB">
      <feFlood
         flood-opacity="0"
         result="BackgroundImageFix"
         id="feFlood8" />
      <feColorMatrix
         in="SourceAlpha"
         type="matrix"
         values="0 0 0 0 0 0 0 0 0 0 0 0 0 0 0 0 0 0 127 0"
         result="hardAlpha"
         id="feColorMatrix8" />
      <feOffset
         dy="4"
         id="feOffset8" />
      <feGaussianBlur
         stdDeviation="2"
         id="feGaussianBlur8" />
      <feComposite
         in2="hardAlpha"
         operator="out"
         id="feComposite8" />
      <feColorMatrix
         type="matrix"
         values="0 0 0 0 0 0 0 0 0 0 0 0 0 0 0 0 0 0 0.25 0"
         id="feColorMatrix9" />
      <feBlend
         mode="normal"
         in2="BackgroundImageFix"
         result="effect1_dropShadow_24_96"
         id="feBlend9" />
      <feBlend
         mode="normal"
         in="SourceGraphic"
         in2="effect1_dropShadow_24_96"
         result="shape"
         id="feBlend10" />
    </filter>
    <pattern
       id="pattern0"
       patternContentUnits="objectBoundingBox"
       width="1"
       height="1">
      <use
         xlink:href="#image0_24_96"
         transform="translate(0 -0.334259) scale(0.000925926)"
         id="use10" />
    </pattern>
    <filter
       id="filter2_f_24_96"
       x="1308.9301"
       y="937.133"
       width="1343.79"
       height="440.078"
       filterUnits="userSpaceOnUse"
       color-interpolation-filters="sRGB">
      <feFlood
         flood-opacity="0"
         result="BackgroundImageFix"
         id="feFlood10" />
      <feBlend
         mode="normal"
         in="SourceGraphic"
         in2="BackgroundImageFix"
         result="shape"
         id="feBlend11" />
      <feGaussianBlur
         stdDeviation="40"
         result="effect1_foregroundBlur_24_96"
         id="feGaussianBlur11" />
    </filter>
    <filter
       id="filter3_d_24_96"
       x="1384.9301"
       y="1017.13"
       width="1191.79"
       height="304.078"
       filterUnits="userSpaceOnUse"
       color-interpolation-filters="sRGB">
      <feFlood
         flood-opacity="0"
         result="BackgroundImageFix"
         id="feFlood11" />
      <feColorMatrix
         in="SourceAlpha"
         type="matrix"
         values="0 0 0 0 0 0 0 0 0 0 0 0 0 0 0 0 0 0 127 0"
         result="hardAlpha"
         id="feColorMatrix11" />
      <feOffset
         dy="20"
         id="feOffset11" />
      <feGaussianBlur
         stdDeviation="2"
         id="feGaussianBlur12" />
      <feComposite
         in2="hardAlpha"
         operator="out"
         id="feComposite12" />
      <feColorMatrix
         type="matrix"
         values="0 0 0 0 0 0 0 0 0 0 0 0 0 0 0 0 0 0 0.25 0"
         id="feColorMatrix12" />
      <feBlend
         mode="normal"
         in2="BackgroundImageFix"
         result="effect1_dropShadow_24_96"
         id="feBlend12" />
      <feBlend
         mode="normal"
         in="SourceGraphic"
         in2="effect1_dropShadow_24_96"
         result="shape"
         id="feBlend13" />
    </filter>
    <filter
       id="filter4_f_24_96"
       x="1278.71"
       y="1500.39"
       width="1669.99"
       height="2339.02"
       filterUnits="userSpaceOnUse"
       color-interpolation-filters="sRGB">
      <feFlood
         flood-opacity="0"
         result="BackgroundImageFix"
         id="feFlood13" />
      <feBlend
         mode="normal"
         in="SourceGraphic"
         in2="BackgroundImageFix"
         result="shape"
         id="feBlend14" />
      <feGaussianBlur
         stdDeviation="40"
         result="effect1_foregroundBlur_24_96"
         id="feGaussianBlur14" />
    </filter>
    <linearGradient
       id="paint0_linear_24_96"
       x1="2016.5"
       y1="232"
       x2="2016.5"
       y2="4381"
       gradientUnits="userSpaceOnUse">
      <stop
         stop-color="#2E2B5F"
         id="stop14" />
      <stop
         offset="1"
         stop-color="#F38456"
         id="stop15" />
    </linearGradient>
    <image
       id="image0_24_96"
       width="1080"
       height="1802"
       href="../stars-overlay.jpg"
       xlink:href="../stars-overlay.jpg" />
    <image
       id="constellation1"
       href="constellation.svg"
       xlink:href="./constellation.svg"
       x="1358.71"
       y="1579.41" />
  </defs>
</svg>
