<?xml version="1.0" encoding="UTF-8" standalone="no"?>
<svg
   width="4613"
   height="4613"
   viewBox="0 0 4613 4613"
   fill="none"
   version="1.1"
   id="svg14"
   xmlns:xlink="http://www.w3.org/1999/xlink"
   xmlns="http://www.w3.org/2000/svg"
   xmlns:svg="http://www.w3.org/2000/svg">
  <path
     d="m 2306.4988,0 1997.49,1153.25 v 2306.5 L 2306.4988,4613 309.01125,3459.75 v -2306.5 z"
     fill="#ffffff"
     id="path1" />
  <g
     filter="url(#filter0_d_24_71)"
     id="g2"
     transform="translate(329.99905)">
    <path
       d="m 1976.5,232 1796.57,1037.25 v 2074.5 L 1976.5,4381 179.93,3343.75 v -2074.5 z"
       fill="url(#paint0_linear_24_71)"
       id="path2"
       style="fill:url(#paint0_linear_24_71)" />
  </g>
  <g
     style="mix-blend-mode:screen"
     filter="url(#filter1_d_24_71)"
     id="g3"
     transform="translate(329.99905)">
    <path
       d="m 1976.5,232 1796.57,1037.25 v 2074.5 L 1976.5,4381 179.93,3343.75 v -2074.5 z"
       fill="url(#pattern0)"
       shape-rendering="crispEdges"
       id="path3" />
  </g>
  <use
     filter="url(#filter2_f_24_71)"
     href="#constellation"
     xlink:href="#constellation"
     id="use3"
     transform="translate(324.53503)" />
  <use
     href="#constellation"
     xlink:href="#constellation"
     id="use4"
     transform="translate(324.13)" />
  <g
     filter="url(#filter3_f_24_71)"
     id="g4"
     transform="translate(368.78992)">
    <path
       d="m 1158.04,1123.09 c 0,11.01 -1.36,20.84 -4.08,29.5 -2.72,8.66 -6.43,16.33 -11.13,23.01 -4.58,6.56 -9.9,12.18 -15.96,16.88 -6.06,4.7 -12.43,8.54 -19.11,11.51 -6.56,2.97 -13.23,5.13 -20.04,6.49 -6.68,1.36 -12.99,2.04 -18.92,2.04 H 959.694 v -48.24 H 1068.8 c 6.18,-0.49 11.75,-1.73 16.7,-3.71 5.07,-2.1 9.4,-4.89 12.98,-8.35 3.59,-3.46 6.37,-7.61 8.35,-12.43 1.98,-4.95 2.97,-10.52 2.97,-16.7 v -21.89 c -0.62,-6.07 -1.92,-11.63 -3.89,-16.7 -1.98,-5.08 -4.71,-9.4 -8.17,-12.99 -3.34,-3.59 -7.42,-6.37 -12.24,-8.35 -4.83,-2.1 -10.4,-3.16 -16.7,-3.16 H 960.065 c -6.432,0 -11.318,1.67 -14.658,5.01 -3.34,3.34 -5.01,8.17 -5.01,14.48 v 198.35 h -48.242 v -198.35 c 0,-12.37 2.227,-22.89 6.68,-31.55 4.577,-8.66 10.205,-15.64 16.885,-20.96 6.803,-5.32 14.163,-9.16 22.08,-11.51 7.916,-2.47 15.215,-3.71 21.894,-3.71 H 1068.8 c 10.88,0 20.65,1.42 29.31,4.27 8.66,2.72 16.27,6.43 22.82,11.13 6.68,4.58 12.31,9.9 16.89,15.96 4.7,6.06 8.53,12.43 11.5,19.11 3.1,6.56 5.32,13.24 6.68,20.04 1.36,6.68 2.04,12.99 2.04,18.93 z m 260.14,46.02 h -152.33 v -48.62 h 152.33 z m 21.71,108.73 h -174.04 c -6.68,0 -13.98,-1.18 -21.9,-3.53 -7.91,-2.35 -15.27,-6.18 -22.08,-11.5 -6.68,-5.45 -12.31,-12.43 -16.88,-20.97 -4.46,-8.66 -6.68,-19.24 -6.68,-31.73 v -174.04 c 0,-3.34 0.62,-6.5 1.85,-9.46 1.24,-2.97 2.91,-5.57 5.01,-7.8 2.23,-2.22 4.83,-3.96 7.8,-5.19 2.96,-1.24 6.18,-1.86 9.64,-1.86 h 217.28 V 1060 h -193.34 v 150.11 c 0,6.31 1.67,11.13 5.01,14.47 3.34,3.34 8.23,5.01 14.66,5.01 h 173.67 z m 307.45,-24.31 c 0,3.46 -0.62,6.68 -1.85,9.65 -1.24,2.97 -2.97,5.56 -5.2,7.79 -2.1,2.1 -4.64,3.77 -7.61,5.01 -2.97,1.24 -6.18,1.86 -9.65,1.86 h -174.04 c -4.45,0 -9.28,-0.5 -14.47,-1.49 -5.07,-1.11 -10.14,-2.78 -15.22,-5.01 -4.94,-2.22 -9.71,-5.07 -14.28,-8.53 -4.58,-3.59 -8.66,-7.86 -12.25,-12.81 -3.46,-5.07 -6.25,-10.88 -8.35,-17.44 -2.1,-6.68 -3.15,-14.16 -3.15,-22.45 v -130.62 c 0,-4.46 0.49,-9.22 1.48,-14.29 1.11,-5.2 2.78,-10.27 5.01,-15.22 2.23,-5.07 5.13,-9.89 8.72,-14.47 3.59,-4.58 7.86,-8.6 12.8,-12.06 5.08,-3.59 10.89,-6.43 17.45,-8.53 6.55,-2.11 13.97,-3.16 22.26,-3.16 h 196.12 V 1060 h -196.12 c -6.31,0 -11.13,1.67 -14.47,5.01 -3.34,3.34 -5.01,8.29 -5.01,14.85 v 130.25 c 0,6.19 1.67,11.01 5.01,14.47 3.46,3.34 8.29,5.01 14.47,5.01 h 150.11 v -60.48 h -128.4 v -48.62 h 152.33 c 3.47,0 6.68,0.68 9.65,2.04 2.97,1.24 5.51,2.97 7.61,5.2 2.23,2.23 3.96,4.82 5.2,7.79 1.23,2.85 1.85,5.94 1.85,9.28 z m 311.35,24.31 h -48.24 v -65.32 h -169.59 v 65.32 h -48.25 V 1144.8 c 0,-19.42 3.34,-37.3 10.02,-53.62 6.68,-16.33 15.96,-30.37 27.84,-42.12 11.87,-11.75 25.91,-20.91 42.11,-27.46 16.21,-6.56 33.9,-9.84 53.07,-9.84 h 108.73 c 3.34,0 6.5,0.62 9.46,1.86 2.97,1.23 5.57,2.97 7.8,5.19 2.22,2.23 3.96,4.83 5.19,7.8 1.24,2.96 1.86,6.12 1.86,9.46 z m -217.83,-113.56 h 169.59 V 1060 h -84.8 c -1.48,0 -4.64,0.25 -9.46,0.75 -4.7,0.37 -10.21,1.42 -16.52,3.15 -6.18,1.73 -12.74,4.39 -19.66,7.98 -6.93,3.59 -13.3,8.53 -19.11,14.84 -5.82,6.31 -10.64,14.23 -14.48,23.75 -3.71,9.4 -5.56,20.85 -5.56,34.33 z m 529.73,35.26 c 0,9.52 -1.23,18.12 -3.71,25.79 -2.35,7.54 -5.5,14.22 -9.46,20.04 -3.96,5.81 -8.6,10.76 -13.92,14.84 -5.32,4.08 -10.82,7.42 -16.51,10.02 -5.69,2.6 -11.5,4.51 -17.44,5.75 -5.82,1.24 -11.32,1.86 -16.52,1.86 h -186.1 v -48.25 h 186.1 c 9.28,0 16.46,-2.72 21.53,-8.16 5.19,-5.44 7.79,-12.74 7.79,-21.89 0,-4.46 -0.68,-8.54 -2.04,-12.25 -1.36,-3.71 -3.34,-6.93 -5.94,-9.65 -2.47,-2.72 -5.56,-4.82 -9.28,-6.31 -3.58,-1.48 -7.6,-2.22 -12.06,-2.22 h -110.95 c -7.8,0 -16.21,-1.37 -25.24,-4.09 -9.03,-2.84 -17.44,-7.36 -25.23,-13.54 -7.67,-6.19 -14.1,-14.29 -19.3,-24.31 -5.07,-10.02 -7.61,-22.26 -7.61,-36.74 0,-14.47 2.54,-26.65 7.61,-36.55 5.2,-10.02 11.63,-18.12 19.3,-24.31 7.79,-6.3 16.2,-10.82 25.23,-13.54 9.03,-2.85 17.44,-4.27 25.24,-4.27 h 164.21 V 1060 h -164.21 c -9.16,0 -16.33,2.79 -21.53,8.35 -5.07,5.57 -7.6,12.93 -7.6,22.08 0,9.28 2.53,16.64 7.6,22.08 5.2,5.32 12.37,7.98 21.53,7.98 h 110.95 0.38 c 5.19,0.13 10.7,0.87 16.51,2.23 5.81,1.24 11.56,3.21 17.25,5.94 5.82,2.72 11.32,6.18 16.52,10.39 5.19,4.08 9.77,9.03 13.73,14.84 4.08,5.81 7.3,12.49 9.65,20.04 2.35,7.55 3.52,16.08 3.52,25.61 z m 300.77,53.99 c 0,3.46 -0.61,6.68 -1.85,9.65 -1.24,2.97 -2.97,5.56 -5.2,7.79 -2.22,2.1 -4.82,3.77 -7.79,5.01 -2.97,1.24 -6.12,1.86 -9.46,1.86 h -108.73 c -10.27,0 -20.66,-1.12 -31.17,-3.34 -10.52,-2.23 -20.72,-5.63 -30.62,-10.21 -9.77,-4.7 -18.99,-10.64 -27.65,-17.81 -8.66,-7.18 -16.26,-15.65 -22.82,-25.42 -6.43,-9.9 -11.5,-21.15 -15.21,-33.77 -3.71,-12.74 -5.57,-26.91 -5.57,-42.49 v -133.04 h 48.24 v 133.04 c 0,13.61 1.86,25.11 5.57,34.51 3.83,9.4 8.66,17.26 14.47,23.57 5.82,6.3 12.19,11.25 19.11,14.84 6.93,3.59 13.49,6.25 19.67,7.98 6.31,1.73 11.81,2.84 16.51,3.34 4.83,0.37 7.98,0.55 9.47,0.55 h 84.79 v -217.83 h 48.24 z m 311.91,-53.99 c 0,9.52 -1.24,18.12 -3.71,25.79 -2.35,7.54 -5.51,14.22 -9.47,20.04 -3.95,5.81 -8.59,10.76 -13.91,14.84 -5.32,4.08 -10.82,7.42 -16.51,10.02 -5.7,2.6 -11.51,4.51 -17.45,5.75 -5.81,1.24 -11.31,1.86 -16.51,1.86 h -186.1 v -48.25 h 186.1 c 9.28,0 16.45,-2.72 21.52,-8.16 5.2,-5.44 7.8,-12.74 7.8,-21.89 0,-4.46 -0.68,-8.54 -2.04,-12.25 -1.37,-3.71 -3.34,-6.93 -5.94,-9.65 -2.48,-2.72 -5.57,-4.82 -9.28,-6.31 -3.59,-1.48 -7.61,-2.22 -12.06,-2.22 h -110.96 c -7.79,0 -16.2,-1.37 -25.23,-4.09 -9.03,-2.84 -17.44,-7.36 -25.24,-13.54 -7.67,-6.19 -14.1,-14.29 -19.29,-24.31 -5.07,-10.02 -7.61,-22.26 -7.61,-36.74 0,-14.47 2.54,-26.65 7.61,-36.55 5.19,-10.02 11.62,-18.12 19.29,-24.31 7.8,-6.3 16.21,-10.82 25.24,-13.54 9.03,-2.85 17.44,-4.27 25.23,-4.27 h 164.21 V 1060 h -164.21 c -9.15,0 -16.33,2.79 -21.52,8.35 -5.07,5.57 -7.61,12.93 -7.61,22.08 0,9.28 2.54,16.64 7.61,22.08 5.19,5.32 12.37,7.98 21.52,7.98 h 110.96 0.37 c 5.2,0.13 10.7,0.87 16.51,2.23 5.82,1.24 11.57,3.21 17.26,5.94 5.81,2.72 11.32,6.18 16.51,10.39 5.2,4.08 9.78,9.03 13.73,14.84 4.09,5.81 7.3,12.49 9.65,20.04 2.35,7.55 3.53,16.08 3.53,25.61 z"
       fill="#ffffff"
       id="path4" />
  </g>
  <g
     filter="url(#filter4_d_24_71)"
     id="g5"
     transform="translate(368.78992)">
    <path
       d="m 1158.04,1123.09 c 0,11.01 -1.36,20.84 -4.08,29.5 -2.72,8.66 -6.43,16.33 -11.13,23.01 -4.58,6.56 -9.9,12.18 -15.96,16.88 -6.06,4.7 -12.43,8.54 -19.11,11.51 -6.56,2.97 -13.23,5.13 -20.04,6.49 -6.68,1.36 -12.99,2.04 -18.92,2.04 H 959.694 v -48.24 H 1068.8 c 6.18,-0.49 11.75,-1.73 16.7,-3.71 5.07,-2.1 9.4,-4.89 12.98,-8.35 3.59,-3.46 6.37,-7.61 8.35,-12.43 1.98,-4.95 2.97,-10.52 2.97,-16.7 v -21.89 c -0.62,-6.07 -1.92,-11.63 -3.89,-16.7 -1.98,-5.08 -4.71,-9.4 -8.17,-12.99 -3.34,-3.59 -7.42,-6.37 -12.24,-8.35 -4.83,-2.1 -10.4,-3.16 -16.7,-3.16 H 960.065 c -6.432,0 -11.318,1.67 -14.658,5.01 -3.34,3.34 -5.01,8.17 -5.01,14.48 v 198.35 h -48.242 v -198.35 c 0,-12.37 2.227,-22.89 6.68,-31.55 4.577,-8.66 10.205,-15.64 16.885,-20.96 6.803,-5.32 14.163,-9.16 22.08,-11.51 7.916,-2.47 15.215,-3.71 21.894,-3.71 H 1068.8 c 10.88,0 20.65,1.42 29.31,4.27 8.66,2.72 16.27,6.43 22.82,11.13 6.68,4.58 12.31,9.9 16.89,15.96 4.7,6.06 8.53,12.43 11.5,19.11 3.1,6.56 5.32,13.24 6.68,20.04 1.36,6.68 2.04,12.99 2.04,18.93 z m 260.14,46.02 h -152.33 v -48.62 h 152.33 z m 21.71,108.73 h -174.04 c -6.68,0 -13.98,-1.18 -21.9,-3.53 -7.91,-2.35 -15.27,-6.18 -22.08,-11.5 -6.68,-5.45 -12.31,-12.43 -16.88,-20.97 -4.46,-8.66 -6.68,-19.24 -6.68,-31.73 v -174.04 c 0,-3.34 0.62,-6.5 1.85,-9.46 1.24,-2.97 2.91,-5.57 5.01,-7.8 2.23,-2.22 4.83,-3.96 7.8,-5.19 2.96,-1.24 6.18,-1.86 9.64,-1.86 h 217.28 V 1060 h -193.34 v 150.11 c 0,6.31 1.67,11.13 5.01,14.47 3.34,3.34 8.23,5.01 14.66,5.01 h 173.67 z m 307.45,-24.31 c 0,3.46 -0.62,6.68 -1.85,9.65 -1.24,2.97 -2.97,5.56 -5.2,7.79 -2.1,2.1 -4.64,3.77 -7.61,5.01 -2.97,1.24 -6.18,1.86 -9.65,1.86 h -174.04 c -4.45,0 -9.28,-0.5 -14.47,-1.49 -5.07,-1.11 -10.14,-2.78 -15.22,-5.01 -4.94,-2.22 -9.71,-5.07 -14.28,-8.53 -4.58,-3.59 -8.66,-7.86 -12.25,-12.81 -3.46,-5.07 -6.25,-10.88 -8.35,-17.44 -2.1,-6.68 -3.15,-14.16 -3.15,-22.45 v -130.62 c 0,-4.46 0.49,-9.22 1.48,-14.29 1.11,-5.2 2.78,-10.27 5.01,-15.22 2.23,-5.07 5.13,-9.89 8.72,-14.47 3.59,-4.58 7.86,-8.6 12.8,-12.06 5.08,-3.59 10.89,-6.43 17.45,-8.53 6.55,-2.11 13.97,-3.16 22.26,-3.16 h 196.12 V 1060 h -196.12 c -6.31,0 -11.13,1.67 -14.47,5.01 -3.34,3.34 -5.01,8.29 -5.01,14.85 v 130.25 c 0,6.19 1.67,11.01 5.01,14.47 3.46,3.34 8.29,5.01 14.47,5.01 h 150.11 v -60.48 h -128.4 v -48.62 h 152.33 c 3.47,0 6.68,0.68 9.65,2.04 2.97,1.24 5.51,2.97 7.61,5.2 2.23,2.23 3.96,4.82 5.2,7.79 1.23,2.85 1.85,5.94 1.85,9.28 z m 311.35,24.31 h -48.24 v -65.32 h -169.59 v 65.32 h -48.25 V 1144.8 c 0,-19.42 3.34,-37.3 10.02,-53.62 6.68,-16.33 15.96,-30.37 27.84,-42.12 11.87,-11.75 25.91,-20.91 42.11,-27.46 16.21,-6.56 33.9,-9.84 53.07,-9.84 h 108.73 c 3.34,0 6.5,0.62 9.46,1.86 2.97,1.23 5.57,2.97 7.8,5.19 2.22,2.23 3.96,4.83 5.19,7.8 1.24,2.96 1.86,6.12 1.86,9.46 z m -217.83,-113.56 h 169.59 V 1060 h -84.8 c -1.48,0 -4.64,0.25 -9.46,0.75 -4.7,0.37 -10.21,1.42 -16.52,3.15 -6.18,1.73 -12.74,4.39 -19.66,7.98 -6.93,3.59 -13.3,8.53 -19.11,14.84 -5.82,6.31 -10.64,14.23 -14.48,23.75 -3.71,9.4 -5.56,20.85 -5.56,34.33 z m 529.73,35.26 c 0,9.52 -1.23,18.12 -3.71,25.79 -2.35,7.54 -5.5,14.22 -9.46,20.04 -3.96,5.81 -8.6,10.76 -13.92,14.84 -5.32,4.08 -10.82,7.42 -16.51,10.02 -5.69,2.6 -11.5,4.51 -17.44,5.75 -5.82,1.24 -11.32,1.86 -16.52,1.86 h -186.1 v -48.25 h 186.1 c 9.28,0 16.46,-2.72 21.53,-8.16 5.19,-5.44 7.79,-12.74 7.79,-21.89 0,-4.46 -0.68,-8.54 -2.04,-12.25 -1.36,-3.71 -3.34,-6.93 -5.94,-9.65 -2.47,-2.72 -5.56,-4.82 -9.28,-6.31 -3.58,-1.48 -7.6,-2.22 -12.06,-2.22 h -110.95 c -7.8,0 -16.21,-1.37 -25.24,-4.09 -9.03,-2.84 -17.44,-7.36 -25.23,-13.54 -7.67,-6.19 -14.1,-14.29 -19.3,-24.31 -5.07,-10.02 -7.61,-22.26 -7.61,-36.74 0,-14.47 2.54,-26.65 7.61,-36.55 5.2,-10.02 11.63,-18.12 19.3,-24.31 7.79,-6.3 16.2,-10.82 25.23,-13.54 9.03,-2.85 17.44,-4.27 25.24,-4.27 h 164.21 V 1060 h -164.21 c -9.16,0 -16.33,2.79 -21.53,8.35 -5.07,5.57 -7.6,12.93 -7.6,22.08 0,9.28 2.53,16.64 7.6,22.08 5.2,5.32 12.37,7.98 21.53,7.98 h 110.95 0.38 c 5.19,0.13 10.7,0.87 16.51,2.23 5.81,1.24 11.56,3.21 17.25,5.94 5.82,2.72 11.32,6.18 16.52,10.39 5.19,4.08 9.77,9.03 13.73,14.84 4.08,5.81 7.3,12.49 9.65,20.04 2.35,7.55 3.52,16.08 3.52,25.61 z m 300.77,53.99 c 0,3.46 -0.61,6.68 -1.85,9.65 -1.24,2.97 -2.97,5.56 -5.2,7.79 -2.22,2.1 -4.82,3.77 -7.79,5.01 -2.97,1.24 -6.12,1.86 -9.46,1.86 h -108.73 c -10.27,0 -20.66,-1.12 -31.17,-3.34 -10.52,-2.23 -20.72,-5.63 -30.62,-10.21 -9.77,-4.7 -18.99,-10.64 -27.65,-17.81 -8.66,-7.18 -16.26,-15.65 -22.82,-25.42 -6.43,-9.9 -11.5,-21.15 -15.21,-33.77 -3.71,-12.74 -5.57,-26.91 -5.57,-42.49 v -133.04 h 48.24 v 133.04 c 0,13.61 1.86,25.11 5.57,34.51 3.83,9.4 8.66,17.26 14.47,23.57 5.82,6.3 12.19,11.25 19.11,14.84 6.93,3.59 13.49,6.25 19.67,7.98 6.31,1.73 11.81,2.84 16.51,3.34 4.83,0.37 7.98,0.55 9.47,0.55 h 84.79 v -217.83 h 48.24 z m 311.91,-53.99 c 0,9.52 -1.24,18.12 -3.71,25.79 -2.35,7.54 -5.51,14.22 -9.47,20.04 -3.95,5.81 -8.59,10.76 -13.91,14.84 -5.32,4.08 -10.82,7.42 -16.51,10.02 -5.7,2.6 -11.51,4.51 -17.45,5.75 -5.81,1.24 -11.31,1.86 -16.51,1.86 h -186.1 v -48.25 h 186.1 c 9.28,0 16.45,-2.72 21.52,-8.16 5.2,-5.44 7.8,-12.74 7.8,-21.89 0,-4.46 -0.68,-8.54 -2.04,-12.25 -1.37,-3.71 -3.34,-6.93 -5.94,-9.65 -2.48,-2.72 -5.57,-4.82 -9.28,-6.31 -3.59,-1.48 -7.61,-2.22 -12.06,-2.22 h -110.96 c -7.79,0 -16.2,-1.37 -25.23,-4.09 -9.03,-2.84 -17.44,-7.36 -25.24,-13.54 -7.67,-6.19 -14.1,-14.29 -19.29,-24.31 -5.07,-10.02 -7.61,-22.26 -7.61,-36.74 0,-14.47 2.54,-26.65 7.61,-36.55 5.19,-10.02 11.62,-18.12 19.29,-24.31 7.8,-6.3 16.21,-10.82 25.24,-13.54 9.03,-2.85 17.44,-4.27 25.23,-4.27 h 164.21 V 1060 h -164.21 c -9.15,0 -16.33,2.79 -21.52,8.35 -5.07,5.57 -7.61,12.93 -7.61,22.08 0,9.28 2.54,16.64 7.61,22.08 5.19,5.32 12.37,7.98 21.52,7.98 h 110.96 0.37 c 5.2,0.13 10.7,0.87 16.51,2.23 5.82,1.24 11.57,3.21 17.26,5.94 5.81,2.72 11.32,6.18 16.51,10.39 5.2,4.08 9.78,9.03 13.73,14.84 4.09,5.81 7.3,12.49 9.65,20.04 2.35,7.55 3.53,16.08 3.53,25.61 z"
       fill="#ffffff"
       id="path5" />
  </g>
  <defs
     id="defs14">
    <filter
       id="filter0_d_24_71"
       x="175.931"
       y="232"
       width="3601.1399"
       height="4157"
       filterUnits="userSpaceOnUse"
       color-interpolation-filters="sRGB">
      <feFlood
         flood-opacity="0"
         result="BackgroundImageFix"
         id="feFlood5" />
      <feColorMatrix
         in="SourceAlpha"
         type="matrix"
         values="0 0 0 0 0 0 0 0 0 0 0 0 0 0 0 0 0 0 127 0"
         result="hardAlpha"
         id="feColorMatrix5" />
      <feOffset
         dy="4"
         id="feOffset5" />
      <feGaussianBlur
         stdDeviation="2"
         id="feGaussianBlur5" />
      <feComposite
         in2="hardAlpha"
         operator="out"
         id="feComposite5" />
      <feColorMatrix
         type="matrix"
         values="0 0 0 0 0 0 0 0 0 0 0 0 0 0 0 0 0 0 0.25 0"
         id="feColorMatrix6" />
      <feBlend
         mode="normal"
         in2="BackgroundImageFix"
         result="effect1_dropShadow_24_71"
         id="feBlend6" />
      <feBlend
         mode="normal"
         in="SourceGraphic"
         in2="effect1_dropShadow_24_71"
         result="shape"
         id="feBlend7" />
    </filter>
    <filter
       id="filter1_d_24_71"
       x="175.931"
       y="232"
       width="3601.1399"
       height="4157"
       filterUnits="userSpaceOnUse"
       color-interpolation-filters="sRGB">
      <feFlood
         flood-opacity="0"
         result="BackgroundImageFix"
         id="feFlood7" />
      <feColorMatrix
         in="SourceAlpha"
         type="matrix"
         values="0 0 0 0 0 0 0 0 0 0 0 0 0 0 0 0 0 0 127 0"
         result="hardAlpha"
         id="feColorMatrix7" />
      <feOffset
         dy="4"
         id="feOffset7" />
      <feGaussianBlur
         stdDeviation="2"
         id="feGaussianBlur7" />
      <feComposite
         in2="hardAlpha"
         operator="out"
         id="feComposite7" />
      <feColorMatrix
         type="matrix"
         values="0 0 0 0 0 0 0 0 0 0 0 0 0 0 0 0 0 0 0.25 0"
         id="feColorMatrix8" />
      <feBlend
         mode="normal"
         in2="BackgroundImageFix"
         result="effect1_dropShadow_24_71"
         id="feBlend8" />
      <feBlend
         mode="normal"
         in="SourceGraphic"
         in2="effect1_dropShadow_24_71"
         result="shape"
         id="feBlend9" />
    </filter>
    <pattern
       id="pattern0"
       patternContentUnits="objectBoundingBox"
       width="1"
       height="1">
      <use
         xlink:href="#image0_24_71"
         transform="translate(0 -0.334259) scale(0.000925926)"
         id="use9" />
    </pattern>
    <filter
       id="filter2_f_24_71"
       x="522.86499"
       y="1493.88"
       width="2918.2"
       height="2256.02"
       filterUnits="userSpaceOnUse"
       color-interpolation-filters="sRGB">
      <feFlood
         flood-opacity="0"
         result="BackgroundImageFix"
         id="feFlood9" />
      <feBlend
         mode="normal"
         in="SourceGraphic"
         in2="BackgroundImageFix"
         result="shape"
         id="feBlend10" />
      <feGaussianBlur
         stdDeviation="40"
         result="effect1_foregroundBlur_24_71"
         id="feGaussianBlur10" />
    </filter>
    <filter
       id="filter3_f_24_71"
       x="812.15503"
       y="931.76202"
       width="2251.1101"
       height="426.07401"
       filterUnits="userSpaceOnUse"
       color-interpolation-filters="sRGB">
      <feFlood
         flood-opacity="0"
         result="BackgroundImageFix"
         id="feFlood10" />
      <feBlend
         mode="normal"
         in="SourceGraphic"
         in2="BackgroundImageFix"
         result="shape"
         id="feBlend11" />
      <feGaussianBlur
         stdDeviation="40"
         result="effect1_foregroundBlur_24_71"
         id="feGaussianBlur11" />
    </filter>
    <filter
       id="filter4_d_24_71"
       x="888.15503"
       y="1011.76"
       width="2099.1101"
       height="290.07401"
       filterUnits="userSpaceOnUse"
       color-interpolation-filters="sRGB">
      <feFlood
         flood-opacity="0"
         result="BackgroundImageFix"
         id="feFlood11" />
      <feColorMatrix
         in="SourceAlpha"
         type="matrix"
         values="0 0 0 0 0 0 0 0 0 0 0 0 0 0 0 0 0 0 127 0"
         result="hardAlpha"
         id="feColorMatrix11" />
      <feOffset
         dy="20"
         id="feOffset11" />
      <feGaussianBlur
         stdDeviation="2"
         id="feGaussianBlur12" />
      <feComposite
         in2="hardAlpha"
         operator="out"
         id="feComposite12" />
      <feColorMatrix
         type="matrix"
         values="0 0 0 0 0 0 0 0 0 0 0 0 0 0 0 0 0 0 0.25 0"
         id="feColorMatrix12" />
      <feBlend
         mode="normal"
         in2="BackgroundImageFix"
         result="effect1_dropShadow_24_71"
         id="feBlend12" />
      <feBlend
         mode="normal"
         in="SourceGraphic"
         in2="effect1_dropShadow_24_71"
         result="shape"
         id="feBlend13" />
    </filter>
    <linearGradient
       id="paint0_linear_24_71"
       x1="1976.5"
       y1="232"
       x2="1976.5"
       y2="4381"
       gradientUnits="userSpaceOnUse">
      <stop
         stop-color="#2E2B5F"
         id="stop13" />
      <stop
         offset="1"
         stop-color="#3EB1C4"
         id="stop14" />
    </linearGradient>
    <image
       id="image0_24_71"
       width="1080"
       height="1802"
       href="../stars-overlay.jpg"
       xlink:href="../stars-overlay.jpg" />
    <image
       id="constellation"
       x="602.87"
       y="1572.89"
       href="constellation.svg"
       xlink:href="./constellation.svg" />
  </defs>
</svg>
