<?xml version="1.0" encoding="UTF-8" standalone="no"?>
<svg
   width="4613.001"
   height="4613.001"
   viewBox="0 0 4613.001 4613.001"
   fill="none"
   version="1.1"
   id="svg15"
   xmlns:xlink="http://www.w3.org/1999/xlink"
   xmlns="http://www.w3.org/2000/svg"
   xmlns:svg="http://www.w3.org/2000/svg">
  <path
     d="m 2306.4978,0 1997.49,1153.2509 v 2306.5 l -1997.49,1153.25 -1997.48466,-1153.25 v -2306.5 z"
     fill="#ffffff"
     id="path1" />
  <g
     filter="url(#filter0_d_24_83)"
     id="g2"
     transform="translate(288.61754,-0.0390625)">
    <path
       d="M 2017.88,232.039 3814.45,1269.29 v 2074.5 L 2017.88,4381.04 221.313,3343.79 v -2074.5 z"
       fill="url(#paint0_linear_24_83)"
       id="path2"
       style="fill:url(#paint0_linear_24_83)" />
  </g>
  <g
     style="mix-blend-mode:screen"
     filter="url(#filter1_d_24_83)"
     id="g3"
     transform="translate(288.61754,-0.0390625)">
    <path
       d="M 2017.88,232.039 3814.45,1269.29 v 2074.5 L 2017.88,4381.04 221.313,3343.79 v -2074.5 z"
       fill="url(#pattern0)"
       shape-rendering="crispEdges"
       id="path3" />
  </g>
  <g
     filter="url(#filter2_f_24_83)"
     id="g4"
     transform="translate(353.05548,-0.0390625)">
    <path
       d="m 1350.94,1318.29 h -160.31 c -4.1,0 -8.54,-0.46 -13.33,-1.37 -4.67,-1.03 -9.34,-2.57 -14.01,-4.62 -4.56,-2.05 -8.94,-4.67 -13.16,-7.86 -4.22,-3.3 -7.97,-7.23 -11.28,-11.79 -3.19,-4.67 -5.75,-10.03 -7.69,-16.06 -1.94,-6.16 -2.9,-13.05 -2.9,-20.68 v -120.32 c 0,-4.1 0.45,-8.48 1.36,-13.15 1.03,-4.79 2.57,-9.46 4.62,-14.02 2.05,-4.67 4.73,-9.11 8.03,-13.33 3.3,-4.21 7.23,-7.92 11.79,-11.11 4.67,-3.3 10.03,-5.92 16.07,-7.86 6.03,-1.93 12.87,-2.9 20.5,-2.9 h 160.31 v 44.43 h -160.31 c -5.81,0 -10.25,1.54 -13.33,4.61 -3.07,3.08 -4.61,7.64 -4.61,13.68 v 119.97 c 0,5.69 1.54,10.14 4.61,13.33 3.19,3.07 7.64,4.61 13.33,4.61 h 160.31 z m 275.48,-163.04 c 0,10.14 -1.31,19.2 -3.93,27.17 -2.5,7.98 -5.86,15.04 -10.08,21.19 -4.21,6.04 -9.17,11.22 -14.87,15.55 -5.58,4.33 -11.39,7.92 -17.43,10.77 -6.04,2.74 -12.19,4.73 -18.46,5.98 -6.15,1.26 -11.96,1.88 -17.43,1.88 h -17.94 v 80.5 h -44.78 v -80.5 h -17.77 c -5.47,0 -11.34,-0.62 -17.6,-1.88 -6.16,-1.25 -12.31,-3.24 -18.46,-5.98 -6.04,-2.85 -11.85,-6.44 -17.43,-10.77 -5.58,-4.33 -10.54,-9.51 -14.87,-15.55 -4.22,-6.15 -7.63,-13.21 -10.25,-21.19 -2.51,-8.09 -3.76,-17.15 -3.76,-27.17 v -82.03 h 44.43 v 82.03 c 0,5.81 0.91,11.05 2.73,15.72 1.83,4.56 4.39,8.49 7.69,11.79 3.31,3.31 7.3,5.87 11.97,7.69 4.78,1.71 10.08,2.57 15.89,2.57 h 80.15 c 4.22,-0.69 8.55,-1.54 12.99,-2.57 4.44,-1.14 8.49,-3.02 12.13,-5.64 3.65,-2.62 6.67,-6.26 9.06,-10.93 2.39,-4.68 3.59,-10.88 3.59,-18.63 v -82.03 h 44.43 z m 281.82,140.65 c 0,3.19 -0.57,6.15 -1.71,8.88 -1.14,2.74 -2.74,5.13 -4.79,7.18 -1.94,1.94 -4.27,3.48 -7.01,4.62 -2.73,1.14 -5.69,1.71 -8.88,1.71 h -160.3 c -4.11,0 -8.55,-0.46 -13.33,-1.37 -4.68,-1.03 -9.35,-2.57 -14.02,-4.62 -4.56,-2.05 -8.94,-4.67 -13.16,-7.86 -4.21,-3.3 -7.97,-7.23 -11.28,-11.79 -3.19,-4.67 -5.75,-10.03 -7.69,-16.06 -1.93,-6.16 -2.9,-13.05 -2.9,-20.68 v -120.32 c 0,-4.1 0.45,-8.48 1.36,-13.15 1.03,-4.79 2.57,-9.46 4.62,-14.02 2.05,-4.67 4.73,-9.11 8.03,-13.33 3.31,-4.21 7.24,-7.92 11.79,-11.11 4.67,-3.3 10.03,-5.92 16.07,-7.86 6.04,-1.93 12.87,-2.9 20.51,-2.9 h 180.64 v 44.43 h -180.64 c -5.82,0 -10.26,1.54 -13.33,4.61 -3.08,3.08 -4.62,7.64 -4.62,13.68 v 119.97 c 0,5.69 1.54,10.14 4.62,13.33 3.19,3.07 7.63,4.61 13.33,4.61 h 138.25 v -55.71 h -118.26 v -44.78 h 140.31 c 3.19,0 6.15,0.63 8.88,1.88 2.74,1.14 5.07,2.74 7.01,4.79 2.05,2.05 3.65,4.44 4.79,7.18 1.14,2.62 1.71,5.46 1.71,8.54 z m 291.21,3.42 c 0,3.19 -0.63,6.15 -1.88,8.88 -1.14,2.74 -2.74,5.13 -4.79,7.18 -1.94,1.94 -4.27,3.47 -7.01,4.61 -2.73,1.14 -5.63,1.71 -8.71,1.71 -2.74,0 -5.53,-0.51 -8.37,-1.53 -2.74,-1.03 -5.19,-2.68 -7.35,-4.96 l -162.36,-169.53 v 172.61 h -44.43 v -226.1 c 0,-4.56 1.25,-8.66 3.76,-12.31 2.62,-3.76 5.92,-6.55 9.91,-8.37 4.22,-1.71 8.55,-2.11 12.99,-1.2 4.44,0.8 8.26,2.85 11.45,6.15 l 162.35,169.36 v -172.6 h 44.44 z m 291.89,-3.42 c 0,3.19 -0.57,6.15 -1.71,8.88 -1.14,2.74 -2.73,5.13 -4.78,7.18 -2.05,1.94 -4.45,3.48 -7.18,4.62 -2.73,1.14 -5.64,1.71 -8.72,1.71 h -100.14 c -9.46,0 -19.03,-1.03 -28.71,-3.08 -9.69,-2.05 -19.09,-5.18 -28.2,-9.4 -9,-4.33 -17.49,-9.8 -25.47,-16.41 -7.97,-6.6 -14.98,-14.41 -21.02,-23.41 -5.92,-9.11 -10.59,-19.48 -14.01,-31.1 -3.42,-11.74 -5.13,-24.78 -5.13,-39.14 v -122.53 h 44.44 v 122.53 c 0,12.53 1.71,23.13 5.12,31.79 3.54,8.66 7.98,15.89 13.33,21.7 5.36,5.81 11.23,10.37 17.61,13.67 6.38,3.31 12.41,5.76 18.11,7.35 5.81,1.6 10.88,2.62 15.21,3.08 4.44,0.34 7.35,0.51 8.72,0.51 h 78.1 v -200.63 h 44.43 z m 287.28,-49.73 c 0,8.77 -1.14,16.69 -3.42,23.75 -2.16,6.95 -5.07,13.1 -8.71,18.46 -3.65,5.35 -7.92,9.91 -12.82,13.67 -4.9,3.76 -9.97,6.84 -15.21,9.23 -5.24,2.39 -10.6,4.16 -16.06,5.3 -5.36,1.14 -10.43,1.71 -15.21,1.71 h -171.42 v -44.44 h 171.42 c 8.54,0 15.15,-2.5 19.82,-7.52 4.79,-5.01 7.18,-11.73 7.18,-20.16 0,-4.11 -0.63,-7.87 -1.88,-11.28 -1.26,-3.42 -3.08,-6.38 -5.47,-8.89 -2.28,-2.51 -5.13,-4.44 -8.55,-5.81 -3.3,-1.37 -7,-2.05 -11.1,-2.05 h -102.2 c -7.18,0 -14.93,-1.25 -23.24,-3.76 -8.32,-2.62 -16.07,-6.78 -23.25,-12.48 -7.06,-5.69 -12.98,-13.16 -17.77,-22.38 -4.67,-9.23 -7.01,-20.51 -7.01,-33.84 0,-13.33 2.34,-24.55 7.01,-33.67 4.79,-9.23 10.71,-16.69 17.77,-22.39 7.18,-5.81 14.93,-9.97 23.25,-12.47 8.31,-2.62 16.06,-3.93 23.24,-3.93 h 151.24 v 44.43 h -151.24 c -8.43,0 -15.04,2.56 -19.83,7.69 -4.67,5.13 -7,11.91 -7,20.34 0,8.54 2.33,15.32 7,20.33 4.79,4.9 11.4,7.35 19.83,7.35 h 102.2 0.34 c 4.78,0.12 9.85,0.8 15.21,2.05 5.35,1.14 10.65,2.97 15.89,5.47 5.36,2.51 10.43,5.7 15.21,9.57 4.79,3.76 9,8.32 12.65,13.67 3.76,5.36 6.72,11.51 8.88,18.46 2.17,6.95 3.25,14.81 3.25,23.59 z"
       fill="#ffffff"
       id="path4" />
  </g>
  <g
     filter="url(#filter3_d_24_83)"
     id="g5"
     transform="translate(353.05548,-0.0390625)">
    <path
       d="m 1350.94,1318.29 h -160.31 c -4.1,0 -8.54,-0.46 -13.33,-1.37 -4.67,-1.03 -9.34,-2.57 -14.01,-4.62 -4.56,-2.05 -8.94,-4.67 -13.16,-7.86 -4.22,-3.3 -7.97,-7.23 -11.28,-11.79 -3.19,-4.67 -5.75,-10.03 -7.69,-16.06 -1.94,-6.16 -2.9,-13.05 -2.9,-20.68 v -120.32 c 0,-4.1 0.45,-8.48 1.36,-13.15 1.03,-4.79 2.57,-9.46 4.62,-14.02 2.05,-4.67 4.73,-9.11 8.03,-13.33 3.3,-4.21 7.23,-7.92 11.79,-11.11 4.67,-3.3 10.03,-5.92 16.07,-7.86 6.03,-1.93 12.87,-2.9 20.5,-2.9 h 160.31 v 44.43 h -160.31 c -5.81,0 -10.25,1.54 -13.33,4.61 -3.07,3.08 -4.61,7.64 -4.61,13.68 v 119.97 c 0,5.69 1.54,10.14 4.61,13.33 3.19,3.07 7.64,4.61 13.33,4.61 h 160.31 z m 275.48,-163.04 c 0,10.14 -1.31,19.2 -3.93,27.17 -2.5,7.98 -5.86,15.04 -10.08,21.19 -4.21,6.04 -9.17,11.22 -14.87,15.55 -5.58,4.33 -11.39,7.92 -17.43,10.77 -6.04,2.74 -12.19,4.73 -18.46,5.98 -6.15,1.26 -11.96,1.88 -17.43,1.88 h -17.94 v 80.5 h -44.78 v -80.5 h -17.77 c -5.47,0 -11.34,-0.62 -17.6,-1.88 -6.16,-1.25 -12.31,-3.24 -18.46,-5.98 -6.04,-2.85 -11.85,-6.44 -17.43,-10.77 -5.58,-4.33 -10.54,-9.51 -14.87,-15.55 -4.22,-6.15 -7.63,-13.21 -10.25,-21.19 -2.51,-8.09 -3.76,-17.15 -3.76,-27.17 v -82.03 h 44.43 v 82.03 c 0,5.81 0.91,11.05 2.73,15.72 1.83,4.56 4.39,8.49 7.69,11.79 3.31,3.31 7.3,5.87 11.97,7.69 4.78,1.71 10.08,2.57 15.89,2.57 h 80.15 c 4.22,-0.69 8.55,-1.54 12.99,-2.57 4.44,-1.14 8.49,-3.02 12.13,-5.64 3.65,-2.62 6.67,-6.26 9.06,-10.93 2.39,-4.68 3.59,-10.88 3.59,-18.63 v -82.03 h 44.43 z m 281.82,140.65 c 0,3.19 -0.57,6.15 -1.71,8.88 -1.14,2.74 -2.74,5.13 -4.79,7.18 -1.94,1.94 -4.27,3.48 -7.01,4.62 -2.73,1.14 -5.69,1.71 -8.88,1.71 h -160.3 c -4.11,0 -8.55,-0.46 -13.33,-1.37 -4.68,-1.03 -9.35,-2.57 -14.02,-4.62 -4.56,-2.05 -8.94,-4.67 -13.16,-7.86 -4.21,-3.3 -7.97,-7.23 -11.28,-11.79 -3.19,-4.67 -5.75,-10.03 -7.69,-16.06 -1.93,-6.16 -2.9,-13.05 -2.9,-20.68 v -120.32 c 0,-4.1 0.45,-8.48 1.36,-13.15 1.03,-4.79 2.57,-9.46 4.62,-14.02 2.05,-4.67 4.73,-9.11 8.03,-13.33 3.31,-4.21 7.24,-7.92 11.79,-11.11 4.67,-3.3 10.03,-5.92 16.07,-7.86 6.04,-1.93 12.87,-2.9 20.51,-2.9 h 180.64 v 44.43 h -180.64 c -5.82,0 -10.26,1.54 -13.33,4.61 -3.08,3.08 -4.62,7.64 -4.62,13.68 v 119.97 c 0,5.69 1.54,10.14 4.62,13.33 3.19,3.07 7.63,4.61 13.33,4.61 h 138.25 v -55.71 h -118.26 v -44.78 h 140.31 c 3.19,0 6.15,0.63 8.88,1.88 2.74,1.14 5.07,2.74 7.01,4.79 2.05,2.05 3.65,4.44 4.79,7.18 1.14,2.62 1.71,5.46 1.71,8.54 z m 291.21,3.42 c 0,3.19 -0.63,6.15 -1.88,8.88 -1.14,2.74 -2.74,5.13 -4.79,7.18 -1.94,1.94 -4.27,3.47 -7.01,4.61 -2.73,1.14 -5.63,1.71 -8.71,1.71 -2.74,0 -5.53,-0.51 -8.37,-1.53 -2.74,-1.03 -5.19,-2.68 -7.35,-4.96 l -162.36,-169.53 v 172.61 h -44.43 v -226.1 c 0,-4.56 1.25,-8.66 3.76,-12.31 2.62,-3.76 5.92,-6.55 9.91,-8.37 4.22,-1.71 8.55,-2.11 12.99,-1.2 4.44,0.8 8.26,2.85 11.45,6.15 l 162.35,169.36 v -172.6 h 44.44 z m 291.89,-3.42 c 0,3.19 -0.57,6.15 -1.71,8.88 -1.14,2.74 -2.73,5.13 -4.78,7.18 -2.05,1.94 -4.45,3.48 -7.18,4.62 -2.73,1.14 -5.64,1.71 -8.72,1.71 h -100.14 c -9.46,0 -19.03,-1.03 -28.71,-3.08 -9.69,-2.05 -19.09,-5.18 -28.2,-9.4 -9,-4.33 -17.49,-9.8 -25.47,-16.41 -7.97,-6.6 -14.98,-14.41 -21.02,-23.41 -5.92,-9.11 -10.59,-19.48 -14.01,-31.1 -3.42,-11.74 -5.13,-24.78 -5.13,-39.14 v -122.53 h 44.44 v 122.53 c 0,12.53 1.71,23.13 5.12,31.79 3.54,8.66 7.98,15.89 13.33,21.7 5.36,5.81 11.23,10.37 17.61,13.67 6.38,3.31 12.41,5.76 18.11,7.35 5.81,1.6 10.88,2.62 15.21,3.08 4.44,0.34 7.35,0.51 8.72,0.51 h 78.1 v -200.63 h 44.43 z m 287.28,-49.73 c 0,8.77 -1.14,16.69 -3.42,23.75 -2.16,6.95 -5.07,13.1 -8.71,18.46 -3.65,5.35 -7.92,9.91 -12.82,13.67 -4.9,3.76 -9.97,6.84 -15.21,9.23 -5.24,2.39 -10.6,4.16 -16.06,5.3 -5.36,1.14 -10.43,1.71 -15.21,1.71 h -171.42 v -44.44 h 171.42 c 8.54,0 15.15,-2.5 19.82,-7.52 4.79,-5.01 7.18,-11.73 7.18,-20.16 0,-4.11 -0.63,-7.87 -1.88,-11.28 -1.26,-3.42 -3.08,-6.38 -5.47,-8.89 -2.28,-2.51 -5.13,-4.44 -8.55,-5.81 -3.3,-1.37 -7,-2.05 -11.1,-2.05 h -102.2 c -7.18,0 -14.93,-1.25 -23.24,-3.76 -8.32,-2.62 -16.07,-6.78 -23.25,-12.48 -7.06,-5.69 -12.98,-13.16 -17.77,-22.38 -4.67,-9.23 -7.01,-20.51 -7.01,-33.84 0,-13.33 2.34,-24.55 7.01,-33.67 4.79,-9.23 10.71,-16.69 17.77,-22.39 7.18,-5.81 14.93,-9.97 23.25,-12.47 8.31,-2.62 16.06,-3.93 23.24,-3.93 h 151.24 v 44.43 h -151.24 c -8.43,0 -15.04,2.56 -19.83,7.69 -4.67,5.13 -7,11.91 -7,20.34 0,8.54 2.33,15.32 7,20.33 4.79,4.9 11.4,7.35 19.83,7.35 h 102.2 0.34 c 4.78,0.12 9.85,0.8 15.21,2.05 5.35,1.14 10.65,2.97 15.89,5.47 5.36,2.51 10.43,5.7 15.21,9.57 4.79,3.76 9,8.32 12.65,13.67 3.76,5.36 6.72,11.51 8.88,18.46 2.17,6.95 3.25,14.81 3.25,23.59 z"
       fill="#ffffff"
       id="path5" />
  </g>
  <use
     filter="url(#filter4_f_24_83)"
     href="#constellation"
     xlink:href="#constellation"
     id="use5"
     transform="translate(374.80249,-0.0390625)" />
  <use
     href="#constellation"
     xlink:href="#constellation"
     id="use6"
     transform="translate(374.50049,-0.0390625)" />
  <defs
     id="defs15">
    <filter
       id="filter0_d_24_83"
       x="217.313"
       y="232.039"
       width="3601.1399"
       height="4157"
       filterUnits="userSpaceOnUse"
       color-interpolation-filters="sRGB">
      <feFlood
         flood-opacity="0"
         result="BackgroundImageFix"
         id="feFlood6" />
      <feColorMatrix
         in="SourceAlpha"
         type="matrix"
         values="0 0 0 0 0 0 0 0 0 0 0 0 0 0 0 0 0 0 127 0"
         result="hardAlpha"
         id="feColorMatrix6" />
      <feOffset
         dy="4"
         id="feOffset6" />
      <feGaussianBlur
         stdDeviation="2"
         id="feGaussianBlur6" />
      <feComposite
         in2="hardAlpha"
         operator="out"
         id="feComposite6" />
      <feColorMatrix
         type="matrix"
         values="0 0 0 0 0 0 0 0 0 0 0 0 0 0 0 0 0 0 0.25 0"
         id="feColorMatrix7" />
      <feBlend
         mode="normal"
         in2="BackgroundImageFix"
         result="effect1_dropShadow_24_83"
         id="feBlend7" />
      <feBlend
         mode="normal"
         in="SourceGraphic"
         in2="effect1_dropShadow_24_83"
         result="shape"
         id="feBlend8" />
    </filter>
    <filter
       id="filter1_d_24_83"
       x="217.313"
       y="232.039"
       width="3601.1399"
       height="4157"
       filterUnits="userSpaceOnUse"
       color-interpolation-filters="sRGB">
      <feFlood
         flood-opacity="0"
         result="BackgroundImageFix"
         id="feFlood8" />
      <feColorMatrix
         in="SourceAlpha"
         type="matrix"
         values="0 0 0 0 0 0 0 0 0 0 0 0 0 0 0 0 0 0 127 0"
         result="hardAlpha"
         id="feColorMatrix8" />
      <feOffset
         dy="4"
         id="feOffset8" />
      <feGaussianBlur
         stdDeviation="2"
         id="feGaussianBlur8" />
      <feComposite
         in2="hardAlpha"
         operator="out"
         id="feComposite8" />
      <feColorMatrix
         type="matrix"
         values="0 0 0 0 0 0 0 0 0 0 0 0 0 0 0 0 0 0 0.25 0"
         id="feColorMatrix9" />
      <feBlend
         mode="normal"
         in2="BackgroundImageFix"
         result="effect1_dropShadow_24_83"
         id="feBlend9" />
      <feBlend
         mode="normal"
         in="SourceGraphic"
         in2="effect1_dropShadow_24_83"
         result="shape"
         id="feBlend10" />
    </filter>
    <pattern
       id="pattern0"
       patternContentUnits="objectBoundingBox"
       width="1"
       height="1">
      <use
         xlink:href="#image0_24_83"
         transform="translate(0 -0.334259) scale(0.000925926)"
         id="use10" />
    </pattern>
    <filter
       id="filter2_f_24_83"
       x="1048.26"
       y="988.94397"
       width="1810.37"
       height="412.759"
       filterUnits="userSpaceOnUse"
       color-interpolation-filters="sRGB">
      <feFlood
         flood-opacity="0"
         result="BackgroundImageFix"
         id="feFlood10" />
      <feBlend
         mode="normal"
         in="SourceGraphic"
         in2="BackgroundImageFix"
         result="shape"
         id="feBlend11" />
      <feGaussianBlur
         stdDeviation="40"
         result="effect1_foregroundBlur_24_83"
         id="feGaussianBlur11" />
    </filter>
    <filter
       id="filter3_d_24_83"
       x="1124.26"
       y="1068.9399"
       width="1658.37"
       height="276.759"
       filterUnits="userSpaceOnUse"
       color-interpolation-filters="sRGB">
      <feFlood
         flood-opacity="0"
         result="BackgroundImageFix"
         id="feFlood11" />
      <feColorMatrix
         in="SourceAlpha"
         type="matrix"
         values="0 0 0 0 0 0 0 0 0 0 0 0 0 0 0 0 0 0 127 0"
         result="hardAlpha"
         id="feColorMatrix11" />
      <feOffset
         dy="20"
         id="feOffset11" />
      <feGaussianBlur
         stdDeviation="2"
         id="feGaussianBlur12" />
      <feComposite
         in2="hardAlpha"
         operator="out"
         id="feComposite12" />
      <feColorMatrix
         type="matrix"
         values="0 0 0 0 0 0 0 0 0 0 0 0 0 0 0 0 0 0 0.25 0"
         id="feColorMatrix12" />
      <feBlend
         mode="normal"
         in2="BackgroundImageFix"
         result="effect1_dropShadow_24_83"
         id="feBlend12" />
      <feBlend
         mode="normal"
         in="SourceGraphic"
         in2="effect1_dropShadow_24_83"
         result="shape"
         id="feBlend13" />
    </filter>
    <filter
       id="filter4_f_24_83"
       x="919.698"
       y="1429.45"
       width="2024"
       height="2321.02"
       filterUnits="userSpaceOnUse"
       color-interpolation-filters="sRGB">
      <feFlood
         flood-opacity="0"
         result="BackgroundImageFix"
         id="feFlood13" />
      <feBlend
         mode="normal"
         in="SourceGraphic"
         in2="BackgroundImageFix"
         result="shape"
         id="feBlend14" />
      <feGaussianBlur
         stdDeviation="40"
         result="effect1_foregroundBlur_24_83"
         id="feGaussianBlur14" />
    </filter>
    <linearGradient
       id="paint0_linear_24_83"
       x1="2017.88"
       y1="232.039"
       x2="2017.88"
       y2="4381.04"
       gradientUnits="userSpaceOnUse">
      <stop
         stop-color="#2E2B5F"
         id="stop14" />
      <stop
         offset="1"
         stop-color="#DBF1F8"
         id="stop15" />
    </linearGradient>
    <image
       id="image0_24_83"
       width="1080"
       height="1802"
       href="../stars-overlay.jpg"
       xlink:href="../stars-overlay.jpg" />
    <image
       id="constellation"
       href="constellation.svg"
       xlink:href="./constellation.svg"
       x="1000"
       y="1508" />
  </defs>
</svg>
